<?xml version="1.0" encoding="UTF-8"?>
<svg fill="none" viewBox="0 0 1024 1024" xmlns="http://www.w3.org/2000/svg">
<g clip-path="url(#remaku_clip_1)">
<path d="m562.11 923.43c-38.787 12.602-87.386-17.176-100.33-54.748l170.46-39.72c-2.877 10.02-17.261 77.292-70.124 94.468z" fill="#CFCCC5" stroke="#383838" stroke-width="15.756"/>
<path d="m790 554.92c27.174-10.875 68.523-17.857 104.75-14.422 18.304 1.736 35.88 6.181 49.765 14.62 14.088 8.564 24.411 21.302 27.426 39.014 3.562 20.929-0.906 37.772-12.399 50.513-11.184 12.398-28.233 20.019-48.109 24.622-39.717 9.197-94.607 7.172-149.49 2.316l-7.728-0.683 1.297-7.649c6.989-41.202 13.406-67.25 18.672-83.13 2.622-7.906 5.043-13.552 7.242-17.359 1.088-1.882 2.279-3.594 3.617-4.931 0.885-0.884 2.572-2.352 4.951-2.911z" fill="#FDFAF3" stroke="#383838" stroke-width="14.324"/>
<path d="m621.4 93.716c15.981-3.6064 30.11-6.1028 42.801-0.915 12.923 5.2827 22.592 17.687 32.502 38.424 17.648 36.926 25.488 66.508 27.581 92.087 1.95 23.835-1.126 43.825-5.483 62.512 16.801 15.701 41.821 44.915 64.108 82.482 23.76 40.047 44.709 90.08 48.998 143.83 14.48 181.44-152.88 386.05-477.38 356.06-10.986 11.248-28.555 26.21-48.725 37.715-21.546 12.29-47.365 21.379-71.672 16.035-15.18-3.338-26.053-10.875-33.009-21.161-6.854-10.135-9.502-22.332-9.502-34.488 0-21.664 8.403-44.907 19.567-60.545-19.254-22.849-27.764-49.974-30.534-66.174-24.865 2.516-61.889 4.909-95.258 0.739-18.308-2.289-36.061-6.613-50.212-14.361-14.302-7.83-25.346-19.431-28.921-36.104-2.8687-13.38-2.923-32.57 14.936-49.522 16.228-15.402 46.374-28.022 99.718-33.993-19.429-47.324-36.308-149.8 23.237-254.89-29.793-29.031-41.641-72.542-43.81-110.99-1.1437-20.265 0.37-39.54 3.572-55.23 1.601-7.844 3.648-14.912 6.063-20.82 2.371-5.797 5.291-10.962 8.883-14.551 10.473-10.466 27.332-15.581 46.055-16.952 18.977-1.389 41.089 0.97 63.438 6.675 42.668 10.893 87.78 34.421 114.12 69.622 23.234-7.884 76.713-18.733 148.75-14.162 2.011-7.98 6.082-16.266 11.547-24.383 7.119-10.572 16.904-21.31 28.627-31.341 23.421-20.043 55.102-37.715 90.006-45.591z" fill="#FDFAF3" stroke="#383838" stroke-width="14.324"/>
<path d="m286.12 235.28c-39.552 5.254-91.274 50.316-108.11 73.623-1.081 1.497-3.254 1.693-4.46 0.295-29.107-33.749-28.743-104.16-14.973-122.12 13.599-17.735 100.61 9.665 129.55 43.627 1.467 1.723 0.241 4.278-2.003 4.576z" fill="#FBD9CD"/>
<path d="m668.65 253.86c-26.479-32.641-91.423-46.318-122.58-48.966-1.501-0.128-2.667-1.375-2.535-2.875 3.262-37.002 73.002-72.889 96.269-61.251 29.679 14.845 43.078 72.056 34.048 112.1-0.537 2.382-3.667 2.886-5.206 0.989z" fill="#FBD9CD"/>
<circle cx="634.9" cy="433.29" r="58.615" fill="#000"/>
<circle cx="617.31" cy="415.71" r="17.584" fill="#fff"/>
<circle cx="330.97" cy="457.17" r="58.615" fill="#000"/>
<circle cx="313.38" cy="439.59" r="17.584" fill="#fff"/>
<ellipse cx="246.2" cy="570.41" rx="65.175" ry="43.688" fill="#FDA1A3"/>
<ellipse transform="rotate(-11.184 724.1 543.45)" cx="724.1" cy="543.45" rx="60.786" ry="40.524" fill="#FDA1A3"/>
<path d="m560.56 519.56-142.19 9.725c-9.695 2.161-11.849 9.725-10.772 18.369 1.463 11.736 12.912 36.79 32.316 55.334-2.513-12.607 0-35.884 28.008-35.884 43.088 0 81.868 3.242 75.405 40.205 21.12-16.202 26.684-37.348 27.85-41.779 0.065-0.251 0.117-0.447 0.157-0.587 2.154-7.564 4.538-30.417 3.232-35.658-1.078-4.322-4.309-9.725-14.004-9.725z" fill="#000"/>
<path d="m441.63 604.59c15.902 14.525 36.862 24.509 61.84 19.782 17.259-3.267 30.188-9.647 39.857-17.064 6.463-36.963-32.317-40.205-75.405-40.205-28.008 0-30.521 23.277-28.008 35.884 0.566 0.54 1.137 1.074 1.716 1.603z" fill="#FDA1A3"/>
<path d="m937.5 497.74-26.224-6.979-76.792 237.91 51.399 13.678 51.617-244.61z" fill="#60A5FF" stroke="#383838" stroke-linejoin="round" stroke-width="10.027"/>
<path d="m952.38 390.71c1.303 0.396 2.49 1.105 3.458 2.063l0.203 0.209 0.197 0.217c0.898 1.024 1.533 2.251 1.85 3.576l0.062 0.285 1e-3 4e-3 6.516 32.392c0.269 1.337 0.859 2.589 1.718 3.647 0.86 1.059 1.964 1.893 3.217 2.431h-1e-3l30.378 13.037h-1e-3c1.341 0.576 2.511 1.493 3.391 2.658l0.17 0.237 0.16 0.243c0.8 1.225 1.26 2.639 1.34 4.1 0.09 1.56-0.27 3.112-1.02 4.482-0.75 1.369-1.87 2.501-3.23 3.267v1e-3l-28.789 16.178v-2e-3c-1.19 0.67-2.199 1.62-2.941 2.766-0.742 1.145-1.195 2.454-1.319 3.812l-2.97 32.863c-0.134 1.563-0.704 3.058-1.646 4.313s-2.218 2.219-3.682 2.783c-1.463 0.565-3.057 0.706-4.597 0.409-1.532-0.296-2.951-1.014-4.096-2.073v1e-3l-24.301-22.375v1e-3c-1.004-0.924-2.218-1.59-3.536-1.941s-2.702-0.376-4.033-0.074v-1e-3l-32.201 7.339-1e-3 -1e-3c-1.522 0.348-3.111 0.266-4.588-0.242-1.481-0.509-2.79-1.424-3.777-2.64s-1.614-2.685-1.808-4.239c-0.193-1.548 0.051-3.119 0.703-4.536l13.759-30.011 0.104-0.234c0.497-1.178 0.72-2.455 0.651-3.734-0.074-1.365-0.48-2.69-1.18-3.863v-1e-3l-16.927-28.319-0.148-0.254c-0.712-1.282-1.077-2.729-1.054-4.199 0.024-1.567 0.489-3.096 1.34-4.413l0.163-0.244c0.839-1.203 1.981-2.166 3.311-2.79 1.331-0.624 2.801-0.885 4.262-0.762l0.292 0.03 32.81 3.788h3e-3c1.355 0.158 2.729-0.017 4.002-0.508 1.274-0.491 2.409-1.284 3.308-2.311l21.747-24.869 3e-3 -4e-3c1.028-1.173 2.364-2.036 3.857-2.49l0.281-0.08c1.41-0.376 2.895-0.378 4.308-2e-3l0.281 0.08z" fill="#FBD654" stroke="#383838" stroke-linecap="round" stroke-linejoin="round" stroke-width="10.027"/>
</g>
<defs>
<clipPath id="remaku_clip_1">
<rect transform="matrix(0 -1 1 0 0 1024)" width="1024" height="1024" fill="#fff"/>
</clipPath>
</defs>
</svg>
